<svg width="400" height="152" viewBox="0 0 400 152" fill="none" xmlns="http://www.w3.org/2000/svg">
<circle cx="45.9506" cy="39.6561" r="39.6561" fill="white"/>
<circle cx="97.5665" cy="39.6561" r="39.6561" fill="white"/>
<circle cx="111.415" cy="102.602" r="39.6561" fill="white"/>
<circle cx="164.289" cy="39.6561" r="39.6561" fill="white"/>
<circle cx="232.271" cy="39.6561" r="39.6561" fill="white"/>
<circle cx="49.0979" cy="101.972" r="42.8034" fill="white"/>
<circle cx="168.696" cy="91.9021" r="52.8747" fill="white"/>
<circle cx="232.271" cy="102.602" r="39.6561" fill="white"/>
<path d="M341 47.3846C341 71.7195 313.835 91.4468 289.5 91.4468C265.165 91.4468 245.438 71.7195 245.438 47.3846C245.438 23.0496 265.165 3.32227 289.5 3.32227C313.835 3.32227 341 23.0496 341 47.3846Z" fill="white"/>
<ellipse cx="353.097" cy="47.5" rx="42.0968" ry="43.5" fill="white"/>
<circle cx="285.463" cy="111.989" r="39.6561" fill="white"/>
<ellipse cx="348.5" cy="102.109" rx="46.5" ry="43.1094" fill="white"/>
</svg>
