<svg width="300" height="115" viewBox="0 0 300 115" fill="none" xmlns="http://www.w3.org/2000/svg">
<circle cx="34.3098" cy="29.6099" r="29.6099" fill="white"/>
<circle cx="72.8496" cy="29.6099" r="29.6099" fill="white"/>
<circle cx="83.1896" cy="76.6094" r="29.6099" fill="white"/>
<circle cx="122.67" cy="29.6099" r="29.6099" fill="white"/>
<circle cx="173.429" cy="29.6099" r="29.6099" fill="white"/>
<circle cx="36.6598" cy="76.1395" r="31.9599" fill="white"/>
<circle cx="125.959" cy="68.6204" r="39.4798" fill="white"/>
<circle cx="173.429" cy="76.6094" r="29.6099" fill="white"/>
<path d="M254.613 35.3808C254.613 53.5509 234.33 68.2806 216.16 68.2806C197.99 68.2806 183.26 53.5509 183.26 35.3808C183.26 17.2107 197.99 2.48096 216.16 2.48096C234.33 2.48096 254.613 17.2107 254.613 35.3808Z" fill="white"/>
<ellipse cx="263.646" cy="35.4663" rx="31.4323" ry="32.48" fill="white"/>
<circle cx="213.146" cy="83.6187" r="29.6099" fill="white"/>
<ellipse cx="260.213" cy="76.2416" rx="34.72" ry="32.1883" fill="white"/>
</svg>
